# xmcd
#
# Track frame offsets: 
#        150
#        43280
#        65899
#        99163
#        120829
#        156621
#
# Disc length: 2407 seconds
#
# Revision: 0
# Processed by: cddbd v1.5.2PL0 Copyright (c) Steve Scherf et al.
# Submitted via: ExactAudioCopy v0.99pb4
#
DISCID=4f096506
DTITLE=Pink Floyd - 1987-10-01 A Journey into Blues
DYEAR=1987
DGENRE=Blues
TTITLE0=Warm up Blues
TTITLE1=Respect
TTITLE2=Born under a bad sign
TTITLE3=Living in the city
TTITLE4=I heard it through the grapevine
TTITLE5=Kansas City
EXTD=
EXTT0=
EXTT1=
EXTT2=
EXTT3=
EXTT4=
EXTT5=
PLAYORDER=
